<svg width="108" height="106" viewBox="0 0 108 106" fill="none" xmlns="http://www.w3.org/2000/svg">
<path d="M18.2059 53.2338C18.2059 71.5707 31.69 86.438 48.3225 86.438C64.955 86.438 78.4403 71.5707 78.4403 53.2338C78.4403 34.8983 64.955 20.0338 48.3225 20.0338C31.69 20.0338 18.2059 34.8983 18.2059 53.2338Z" fill="url(#paint0_radial_3_80)"/>
<path d="M52.913 49.8204C45.2417 42.9571 42.2452 32.5157 46.2226 26.4874C50.2 20.4591 59.6441 21.1378 67.3179 27.9913C74.9866 34.8504 77.9792 45.3002 74.0044 51.3229C70.0244 57.354 60.5804 56.6753 52.913 49.8204Z" fill="url(#paint1_radial_3_80)"/>
<path opacity="0.4" d="M21.7056 60.573C22.7223 56.902 27.8863 58.4228 33.2457 63.9723C38.6063 69.5232 42.1239 76.9949 41.1136 80.6716C40.0994 84.3426 34.9342 82.8218 29.5723 77.2723C24.2154 71.72 20.6927 64.2413 21.7056 60.573Z" fill="url(#paint2_radial_3_80)"/>
<path d="M51.9767 10.2162C51.9767 12.4425 50.3418 14.2449 48.3237 14.2449C46.3057 14.2449 44.672 12.4425 44.672 10.2162V4.50332C44.672 2.27703 46.3057 0.476013 48.3237 0.476013C50.3418 0.476013 51.9767 2.27703 51.9767 4.50332V10.2162Z" fill="url(#paint3_radial_3_80)"/>
<path d="M23.3137 19.9691C24.7404 21.5434 24.7404 24.0921 23.3137 25.665C21.887 27.2379 19.5751 27.2379 18.1472 25.6636L14.4839 21.625C13.0559 20.0507 13.056 17.5034 14.4827 15.9291C15.9094 14.3562 18.2225 14.3562 19.6492 15.9305L23.3137 19.9691Z" fill="url(#paint4_radial_3_80)"/>
<path d="M9.30339 49.2121C11.3227 49.2121 12.9564 51.0131 12.9551 53.238C12.9551 55.4629 11.3227 57.2639 9.30339 57.2639H4.12028C2.10093 57.2639 0.467281 55.4629 0.466003 53.238C0.466003 51.0117 2.10093 49.2121 4.12028 49.2121H9.30339Z" fill="url(#paint5_radial_3_80)"/>
<path d="M18.1485 80.8096C19.5764 79.2353 21.8883 79.2353 23.3137 80.8096C24.7417 82.3839 24.7417 84.9298 23.3137 86.5041L19.6505 90.5441C18.2226 92.1184 15.9119 92.1184 14.484 90.5469C13.056 88.9726 13.0573 86.4239 14.4853 84.8496L18.1485 80.8096Z" fill="url(#paint6_radial_3_80)"/>
<path d="M44.6708 96.2584C44.6708 94.0321 46.3057 92.2297 48.3225 92.2311C50.3419 92.2311 51.9755 94.0321 51.9755 96.2584L51.9767 101.971C51.9767 104.198 50.3418 105.997 48.325 106C46.3057 106 44.6734 104.198 44.6734 101.971L44.6708 96.2584Z" fill="url(#paint7_radial_3_80)"/>
<path d="M73.3351 86.5041C71.9072 84.9298 71.9072 82.3811 73.3351 80.8096C74.7631 79.2353 77.0723 79.2353 78.5003 80.8096L82.1648 84.8467C83.5928 86.4211 83.5915 88.9712 82.1674 90.5441C80.7394 92.1184 78.4275 92.1156 76.9996 90.5427L73.3351 86.5041Z" fill="url(#paint8_radial_3_80)"/>
<path d="M87.3467 57.2625C85.3273 57.2625 83.6924 55.4629 83.695 53.2366C83.695 51.0103 85.3273 49.2107 87.3467 49.2107H92.5285C94.5479 49.2107 96.1803 51.0131 96.1828 53.2352C96.1815 55.4629 94.5466 57.2625 92.5285 57.2625H87.3467Z" fill="url(#paint9_radial_3_80)"/>
<path d="M78.499 25.6622C77.0723 27.2365 74.7605 27.2379 73.3338 25.6622C71.9071 24.0893 71.9071 21.542 73.3338 19.9676L76.9983 15.9291C78.425 14.3547 80.7381 14.3562 82.1648 15.9262C83.5915 17.502 83.5902 20.0493 82.1635 21.6236L78.499 25.6622Z" fill="url(#paint10_radial_3_80)"/>
<path d="M21.979 60.0464C31.7947 60.0464 40.0215 67.5321 42.2299 77.6074C44.013 76.6555 46.0068 76.1063 48.1232 76.1063C55.6106 76.1063 61.6801 82.7979 61.6801 91.0539C61.6801 99.3084 55.6106 106 48.1232 106H21.9776C10.4669 106 1.1366 95.712 1.1366 83.0246C1.1366 70.3343 10.4683 60.0464 21.979 60.0464Z" fill="url(#paint11_radial_3_80)"/>
<path d="M21.979 60.0464C31.7947 60.0464 40.0215 67.5321 42.2299 77.6074C44.013 76.6555 46.0068 76.1063 48.1232 76.1063C55.6106 76.1063 61.6801 82.7979 61.6801 91.0539C61.6801 99.3084 55.6106 106 48.1232 106H21.9776C10.4669 106 1.1366 95.712 1.1366 83.0246C1.1366 70.3343 10.4683 60.0464 21.979 60.0464Z" fill="url(#paint12_radial_3_80)"/>
<path d="M19.3082 82.0037C24.734 77.1498 26.8543 69.7598 24.0418 65.4959C21.2254 61.2292 14.5453 61.7094 9.11562 66.5577C3.69236 71.4116 1.57466 78.8058 4.38591 83.0668C7.19972 87.3335 13.8824 86.8547 19.3082 82.0037Z" fill="url(#paint13_radial_3_80)"/>
<path opacity="0.4" d="M46.616 88.308C49.5959 85.6381 50.762 81.5784 49.2165 79.2367C47.6697 76.8893 43.9976 77.1526 41.0139 79.8197C38.0328 82.4881 36.8705 86.5506 38.4135 88.891C39.9615 91.2384 43.6336 90.9722 46.616 88.308Z" fill="url(#paint14_radial_3_80)"/>
<path opacity="0.2" d="M53.231 94.1194C56.5123 90.461 59.8996 89.0303 60.8027 90.9229C61.7019 92.8126 59.7719 97.3117 56.4932 100.973C53.2106 104.63 49.8233 106.059 48.9228 104.167C48.0249 102.274 49.9523 97.7764 53.231 94.1194Z" fill="url(#paint15_radial_3_80)"/>
<path d="M91.471 33.5816C83.6873 33.5816 77.1643 39.5184 75.4132 47.5068C73.9993 46.7521 72.4167 46.3169 70.7397 46.3169C64.8017 46.3169 59.9877 51.6229 59.9877 58.1693C59.9877 64.7158 64.8017 70.0232 70.7397 70.0232H91.471C100.601 70.0232 108 61.8643 108 51.8045C108 41.7405 100.6 33.5816 91.471 33.5816Z" fill="url(#paint16_radial_3_80)"/>
<path d="M91.471 33.5816C83.6873 33.5816 77.1643 39.5184 75.4132 47.5068C73.9993 46.7521 72.4167 46.3169 70.7397 46.3169C64.8017 46.3169 59.9877 51.6229 59.9877 58.1693C59.9877 64.7158 64.8017 70.0232 70.7397 70.0232H91.471C100.601 70.0232 108 61.8643 108 51.8045C108 41.7405 100.6 33.5816 91.471 33.5816Z" fill="url(#paint17_radial_3_80)"/>
<path d="M93.5887 50.9948C89.2882 47.1449 87.6047 41.2842 89.8361 37.9032C92.0687 34.5209 97.3656 34.9011 101.672 38.7467C105.974 42.5952 107.654 48.4587 105.424 51.8383C103.192 55.2221 97.8905 54.8405 93.5887 50.9948Z" fill="url(#paint18_radial_3_80)"/>
<path opacity="0.4" d="M71.9339 55.9924C69.5697 53.8759 68.6462 50.6555 69.8711 48.7981C71.0973 46.938 74.0108 47.1464 76.3762 49.26C78.7417 51.3765 79.6626 54.5983 78.439 56.4557C77.2116 58.3172 74.2994 58.106 71.9339 55.9924Z" fill="url(#paint19_radial_3_80)"/>
<path opacity="0.2" d="M66.6882 60.6026C64.0851 57.7018 61.4003 56.5669 60.6851 58.0665C59.9698 59.5648 61.5013 63.1345 64.1018 66.0367C66.7049 68.9375 69.3909 70.0696 70.1049 68.5713C70.8163 67.0688 69.2887 63.502 66.6882 60.6026Z" fill="url(#paint20_radial_3_80)"/>
<defs>
<radialGradient id="paint0_radial_3_80" cx="0" cy="0" r="1" gradientUnits="userSpaceOnUse" gradientTransform="translate(55.2116 32.4191) rotate(180) scale(57.1718 63.0305)">
<stop stop-color="#FFF8C7"/>
<stop offset="0.1559" stop-color="#FFE436"/>
<stop offset="1" stop-color="#FE761C"/>
</radialGradient>
<radialGradient id="paint1_radial_3_80" cx="0" cy="0" r="1" gradientUnits="userSpaceOnUse" gradientTransform="translate(60.114 38.9039) rotate(123.419) scale(13.0766 18.4339)">
<stop stop-color="white"/>
<stop offset="1" stop-color="white" stop-opacity="0"/>
</radialGradient>
<radialGradient id="paint2_radial_3_80" cx="0" cy="0" r="1" gradientUnits="userSpaceOnUse" gradientTransform="translate(31.409 70.6233) rotate(-133.996) scale(13.9692 5.94122)">
<stop stop-color="white"/>
<stop offset="1" stop-color="white" stop-opacity="0"/>
</radialGradient>
<radialGradient id="paint3_radial_3_80" cx="0" cy="0" r="1" gradientUnits="userSpaceOnUse" gradientTransform="translate(48.9889 2.51009) scale(9.94821 10.9677)">
<stop stop-color="#FFF8C7"/>
<stop offset="0.1559" stop-color="#FFE436"/>
<stop offset="1" stop-color="#FE761C"/>
</radialGradient>
<radialGradient id="paint4_radial_3_80" cx="0" cy="0" r="1" gradientUnits="userSpaceOnUse" gradientTransform="translate(16.2588 16.849) rotate(-47.7904) scale(10.4701 10.4205)">
<stop stop-color="#FFF8C7"/>
<stop offset="0.1559" stop-color="#FFE436"/>
<stop offset="1" stop-color="#FE761C"/>
</radialGradient>
<radialGradient id="paint5_radial_3_80" cx="0" cy="0" r="1" gradientUnits="userSpaceOnUse" gradientTransform="translate(2.31127 52.5052) rotate(-90) scale(10.9675 9.9481)">
<stop stop-color="#FFF8C7"/>
<stop offset="0.1559" stop-color="#FFE436"/>
<stop offset="1" stop-color="#FE761C"/>
</radialGradient>
<radialGradient id="paint6_radial_3_80" cx="0" cy="0" r="1" gradientUnits="userSpaceOnUse" gradientTransform="translate(15.3181 88.5892) rotate(-132.21) scale(10.47 10.4204)">
<stop stop-color="#FFF8C7"/>
<stop offset="0.1559" stop-color="#FFE436"/>
<stop offset="1" stop-color="#FE761C"/>
</radialGradient>
<radialGradient id="paint7_radial_3_80" cx="0" cy="0" r="1" gradientUnits="userSpaceOnUse" gradientTransform="translate(47.6592 103.966) rotate(180) scale(9.94842 10.9679)">
<stop stop-color="#FFF8C7"/>
<stop offset="0.1559" stop-color="#FFE436"/>
<stop offset="1" stop-color="#FE761C"/>
</radialGradient>
<radialGradient id="paint8_radial_3_80" cx="0" cy="0" r="1" gradientUnits="userSpaceOnUse" gradientTransform="translate(80.391 89.6255) rotate(132.21) scale(10.4701 10.4205)">
<stop stop-color="#FFF8C7"/>
<stop offset="0.1559" stop-color="#FFE436"/>
<stop offset="1" stop-color="#FE761C"/>
</radialGradient>
<radialGradient id="paint9_radial_3_80" cx="0" cy="0" r="1" gradientUnits="userSpaceOnUse" gradientTransform="translate(94.3378 53.969) rotate(90) scale(10.9667 9.94736)">
<stop stop-color="#FFF8C7"/>
<stop offset="0.1559" stop-color="#FFE436"/>
<stop offset="1" stop-color="#FE761C"/>
</radialGradient>
<radialGradient id="paint10_radial_3_80" cx="0" cy="0" r="1" gradientUnits="userSpaceOnUse" gradientTransform="translate(81.3302 17.884) rotate(47.7904) scale(10.4701 10.4205)">
<stop stop-color="#FFF8C7"/>
<stop offset="0.1559" stop-color="#FFE436"/>
<stop offset="1" stop-color="#FE761C"/>
</radialGradient>
<radialGradient id="paint11_radial_3_80" cx="0" cy="0" r="1" gradientUnits="userSpaceOnUse" gradientTransform="translate(14.1645 66.3548) rotate(180) scale(51.7454 57.048)">
<stop stop-color="white"/>
<stop offset="0.198" stop-color="#D9F7FF"/>
<stop offset="1" stop-color="#89C0F5"/>
</radialGradient>
<radialGradient id="paint12_radial_3_80" cx="0" cy="0" r="1" gradientUnits="userSpaceOnUse" gradientTransform="translate(30.9286 65.9372) scale(44.1989 48.7282)">
<stop stop-color="#FFE436"/>
<stop offset="0.0198" stop-color="#FFDF35" stop-opacity="0.9742"/>
<stop offset="0.1739" stop-color="#FFB92C" stop-opacity="0.7739"/>
<stop offset="0.3276" stop-color="#FE9C25" stop-opacity="0.5739"/>
<stop offset="0.4791" stop-color="#FE8720" stop-opacity="0.3768"/>
<stop offset="0.6274" stop-color="#FE7A1D" stop-opacity="0.1839"/>
<stop offset="0.7688" stop-color="#FE761C" stop-opacity="0"/>
</radialGradient>
<radialGradient id="paint13_radial_3_80" cx="0" cy="0" r="1" gradientUnits="userSpaceOnUse" gradientTransform="translate(14.2121 74.28) rotate(56.5814) scale(9.25229 13.0429)">
<stop stop-color="white"/>
<stop offset="1" stop-color="white" stop-opacity="0"/>
</radialGradient>
<radialGradient id="paint14_radial_3_80" cx="0" cy="0" r="1" gradientUnits="userSpaceOnUse" gradientTransform="translate(43.8147 84.063) rotate(56.5815) scale(5.08486 7.16806)">
<stop stop-color="white"/>
<stop offset="1" stop-color="white" stop-opacity="0"/>
</radialGradient>
<radialGradient id="paint15_radial_3_80" cx="0" cy="0" r="1" gradientUnits="userSpaceOnUse" gradientTransform="translate(54.9385 97.6241) rotate(-144.394) scale(3.02813 8.56987)">
<stop stop-color="white"/>
<stop offset="1" stop-color="white" stop-opacity="0"/>
</radialGradient>
<radialGradient id="paint16_radial_3_80" cx="0" cy="0" r="1" gradientUnits="userSpaceOnUse" gradientTransform="translate(97.6689 38.5842) scale(41.0346 45.2396)">
<stop stop-color="white"/>
<stop offset="0.198" stop-color="#D9F7FF"/>
<stop offset="1" stop-color="#89C0F5"/>
</radialGradient>
<radialGradient id="paint17_radial_3_80" cx="0" cy="0" r="1" gradientUnits="userSpaceOnUse" gradientTransform="translate(57.7511 52.7943) scale(55.0134 60.651)">
<stop stop-color="#FFE436"/>
<stop offset="0.0198" stop-color="#FFDF35" stop-opacity="0.9742"/>
<stop offset="0.1739" stop-color="#FFB92C" stop-opacity="0.7739"/>
<stop offset="0.3276" stop-color="#FE9C25" stop-opacity="0.5739"/>
<stop offset="0.4791" stop-color="#FE8720" stop-opacity="0.3768"/>
<stop offset="0.6274" stop-color="#FE7A1D" stop-opacity="0.1839"/>
<stop offset="0.7688" stop-color="#FE761C" stop-opacity="0"/>
</radialGradient>
<radialGradient id="paint18_radial_3_80" cx="0" cy="0" r="1" gradientUnits="userSpaceOnUse" gradientTransform="translate(97.6301 44.8696) rotate(123.419) scale(7.33722 10.3432)">
<stop stop-color="white"/>
<stop offset="1" stop-color="white" stop-opacity="0"/>
</radialGradient>
<radialGradient id="paint19_radial_3_80" cx="0" cy="0" r="1" gradientUnits="userSpaceOnUse" gradientTransform="translate(74.1548 52.6266) rotate(123.419) scale(4.03275 5.68492)">
<stop stop-color="white"/>
<stop offset="1" stop-color="white" stop-opacity="0"/>
</radialGradient>
<radialGradient id="paint20_radial_3_80" cx="0" cy="0" r="1" gradientUnits="userSpaceOnUse" gradientTransform="translate(65.3939 63.299) rotate(-35.6056) scale(2.40139 6.79616)">
<stop stop-color="white"/>
<stop offset="1" stop-color="white" stop-opacity="0"/>
</radialGradient>
</defs>
</svg>
